<svg xmlns="http://www.w3.org/2000/svg" xmlns:xlink="http://www.w3.org/1999/xlink" width="500" zoomAndPan="magnify" viewBox="0 0 375 374.999991" height="500" preserveAspectRatio="xMidYMid meet" version="1.0"><defs><clipPath id="156f688857"><path d="M 17.554688 46.660156 L 352 46.660156 L 352 273 L 17.554688 273 Z M 17.554688 46.660156 " clip-rule="nonzero"/></clipPath><clipPath id="94e626ec15"><path d="M 17.554688 211 L 352 211 L 352 273 L 17.554688 273 Z M 17.554688 211 " clip-rule="nonzero"/></clipPath></defs><g clip-path="url(#156f688857)"><path fill="#a0d0f4" d="M 17.738281 260.179688 L 17.738281 58.558594 C 17.738281 51.988281 23.058594 46.660156 29.628906 46.660156 L 339.675781 46.660156 C 346.234375 46.660156 351.5625 51.988281 351.5625 58.566406 L 351.5625 260.1875 C 351.5625 266.757812 346.242188 272.09375 339.675781 272.09375 L 29.628906 272.09375 C 23.058594 272.089844 17.738281 266.757812 17.738281 260.179688 Z M 17.738281 260.179688 " fill-opacity="1" fill-rule="evenodd"/></g><path fill="#e15342" d="M 37.652344 57.066406 C 40.765625 57.066406 43.285156 59.589844 43.285156 62.707031 C 43.285156 65.824219 40.765625 68.347656 37.652344 68.347656 C 34.546875 68.347656 32.019531 65.824219 32.019531 62.707031 C 32.019531 59.589844 34.542969 57.066406 37.652344 57.066406 Z M 37.652344 57.066406 " fill-opacity="1" fill-rule="evenodd"/><path fill="#3785df" d="M 57.34375 57.066406 C 60.453125 57.066406 62.976562 59.589844 62.976562 62.707031 C 62.976562 65.824219 60.453125 68.347656 57.34375 68.347656 C 54.238281 68.347656 51.710938 65.824219 51.710938 62.707031 C 51.710938 59.589844 54.234375 57.066406 57.34375 57.066406 Z M 57.34375 57.066406 " fill-opacity="1" fill-rule="evenodd"/><path fill="#2a4983" d="M 77.035156 57.066406 C 80.140625 57.066406 82.667969 59.589844 82.667969 62.707031 C 82.667969 65.824219 80.144531 68.347656 77.035156 68.347656 C 73.921875 68.347656 71.402344 65.824219 71.402344 62.707031 C 71.402344 59.589844 73.921875 57.066406 77.035156 57.066406 Z M 77.035156 57.066406 " fill-opacity="1" fill-rule="evenodd"/><g clip-path="url(#94e626ec15)"><path fill="#3785df" d="M 351.5625 211.617188 L 351.5625 260.179688 C 351.5625 266.753906 346.242188 272.089844 339.675781 272.089844 L 29.628906 272.089844 C 23.058594 272.089844 17.738281 266.757812 17.738281 260.179688 L 17.738281 211.617188 Z M 351.5625 211.617188 " fill-opacity="1" fill-rule="evenodd"/></g><path fill="#e3effa" d="M 278.914062 151.597656 C 281.890625 151.597656 284.296875 153.945312 284.296875 156.851562 L 284.296875 180.613281 C 284.296875 183.511719 281.890625 185.867188 278.914062 185.867188 L 116.050781 185.867188 C 113.074219 185.867188 110.667969 183.515625 110.667969 180.613281 L 110.667969 156.851562 C 110.667969 153.953125 113.082031 151.597656 116.050781 151.597656 Z M 278.914062 151.597656 " fill-opacity="1" fill-rule="evenodd"/><path fill="#e3effa" d="M 278.914062 103.207031 C 281.890625 103.207031 284.296875 105.554688 284.296875 108.457031 L 284.296875 132.214844 C 284.296875 135.113281 281.890625 137.464844 278.914062 137.464844 L 116.050781 137.464844 C 113.074219 137.464844 110.667969 135.113281 110.667969 132.214844 L 110.667969 108.457031 C 110.667969 105.554688 113.082031 103.207031 116.050781 103.207031 Z M 278.914062 103.207031 " fill-opacity="1" fill-rule="evenodd"/><path fill="#3785df" d="M 79.65625 121.535156 C 76.964844 120.1875 75.121094 117.402344 75.121094 114.183594 C 75.121094 109.648438 78.796875 105.96875 83.324219 105.96875 C 87.851562 105.96875 91.527344 109.648438 91.527344 114.183594 C 91.527344 117.394531 89.675781 120.1875 86.992188 121.535156 C 88.957031 122.132812 90.773438 123.214844 92.25 124.695312 C 94.625 127.0625 95.953125 130.28125 95.953125 133.632812 C 95.953125 133.640625 95.953125 133.980469 95.953125 133.980469 C 95.953125 134.632812 95.246094 134.691406 95.246094 134.691406 L 71.402344 134.691406 C 71.402344 134.691406 70.695312 134.625 70.695312 133.980469 L 70.695312 133.640625 L 71.402344 134.339844 L 70.695312 133.632812 C 70.695312 130.28125 72.023438 127.0625 74.398438 124.695312 C 75.875 123.214844 77.683594 122.132812 79.65625 121.535156 Z M 79.65625 121.535156 " fill-opacity="1" fill-rule="evenodd"/><path fill="#3785df" d="M 82.035156 174.292969 L 82.035156 179.695312 C 82.035156 179.953125 82.28125 180.15625 82.585938 180.15625 L 84.164062 180.15625 C 84.46875 180.15625 84.714844 179.953125 84.714844 179.695312 L 84.714844 174.25 C 85.941406 173.714844 86.792969 172.484375 86.792969 171.066406 C 86.792969 169.152344 85.242188 167.589844 83.324219 167.589844 C 81.414062 167.589844 79.855469 169.144531 79.855469 171.066406 C 79.855469 172.527344 80.761719 173.777344 82.035156 174.292969 Z M 91.308594 162.425781 C 91.308594 161.96875 91.316406 161.507812 91.316406 161.035156 C 91.316406 156.382812 87.75 152.589844 83.332031 152.589844 C 78.910156 152.589844 75.347656 156.382812 75.347656 161.035156 C 75.347656 161.507812 75.347656 161.976562 75.351562 162.425781 Z M 92.949219 162.425781 L 94.21875 162.425781 C 94.859375 162.425781 95.484375 162.683594 95.945312 163.136719 C 96.398438 163.597656 96.65625 164.21875 96.65625 164.867188 L 96.65625 182.347656 C 96.65625 182.996094 96.398438 183.617188 95.945312 184.082031 C 95.484375 184.542969 94.867188 184.792969 94.21875 184.792969 L 72.433594 184.792969 C 71.789062 184.792969 71.164062 184.535156 70.710938 184.082031 C 70.25 183.625 69.992188 183 69.992188 182.347656 L 69.992188 164.867188 C 69.992188 164.222656 70.25 163.597656 70.710938 163.136719 C 71.164062 162.683594 71.789062 162.425781 72.433594 162.425781 L 73.699219 162.425781 C 73.699219 161.96875 73.691406 161.507812 73.691406 161.035156 C 73.691406 155.453125 78.015625 150.945312 83.316406 150.945312 C 88.617188 150.945312 92.941406 155.453125 92.941406 161.035156 C 92.949219 161.507812 92.949219 161.96875 92.949219 162.425781 Z M 92.949219 162.425781 " fill-opacity="1" fill-rule="evenodd"/><path fill="#2a4983" d="M 125.945312 121.945312 C 125.242188 122.132812 124.515625 121.714844 124.332031 121.007812 C 124.140625 120.300781 124.5625 119.574219 125.269531 119.386719 C 126.339844 119.101562 127.429688 118.867188 128.519531 118.664062 C 132.085938 118.007812 135.828125 117.675781 139.324219 118.875 C 141.195312 119.515625 142.964844 120.484375 144.78125 121.292969 C 146.386719 122.003906 148.035156 122.582031 149.859375 122.535156 C 153.289062 122.453125 156.617188 121.332031 159.953125 120.328125 C 163.5625 119.242188 167.191406 118.277344 170.9375 118.582031 C 173.140625 118.765625 175.039062 119.566406 176.964844 120.316406 C 178.597656 120.953125 180.246094 121.558594 182.199219 121.449219 C 190.582031 121.007812 198.710938 117.402344 207.167969 117.679688 C 209.589844 117.761719 211.640625 118.746094 213.703125 119.746094 C 215.410156 120.574219 217.125 121.40625 219.1875 121.359375 C 227.457031 121.191406 235.453125 118.183594 243.710938 117.695312 C 250.46875 117.292969 257.6875 119.234375 264.394531 120.152344 C 265.121094 120.253906 265.625 120.917969 265.527344 121.644531 C 265.425781 122.371094 264.761719 122.875 264.042969 122.777344 C 257.496094 121.882812 250.460938 119.957031 243.867188 120.34375 C 235.574219 120.832031 227.550781 123.839844 219.246094 124.007812 C 216.746094 124.0625 214.636719 123.132812 212.5625 122.128906 C 210.835938 121.292969 209.128906 120.394531 207.09375 120.328125 C 198.710938 120.058594 190.664062 123.660156 182.351562 124.097656 C 180 124.21875 177.996094 123.554688 176.023438 122.785156 C 174.335938 122.128906 172.675781 121.378906 170.742188 121.226562 C 167.328125 120.945312 164.023438 121.875 160.738281 122.867188 C 157.171875 123.941406 153.613281 125.09375 149.945312 125.1875 C 147.71875 125.242188 145.703125 124.585938 143.738281 123.722656 C 141.988281 122.949219 140.289062 122.003906 138.492188 121.386719 C 135.421875 120.335938 132.140625 120.703125 129.015625 121.273438 C 127.980469 121.460938 126.957031 121.679688 125.945312 121.945312 Z M 125.945312 121.945312 " fill-opacity="1" fill-rule="evenodd"/><path fill="#2a4983" d="M 218.507812 168.730469 L 214.671875 166.511719 C 214.042969 166.144531 213.824219 165.335938 214.191406 164.707031 C 214.554688 164.074219 215.363281 163.855469 215.992188 164.21875 L 219.828125 166.4375 L 219.828125 161.996094 C 219.828125 161.265625 220.417969 160.671875 221.152344 160.671875 C 221.882812 160.671875 222.472656 161.265625 222.472656 161.996094 L 222.472656 166.4375 L 226.308594 164.21875 C 226.941406 163.851562 227.753906 164.066406 228.121094 164.707031 C 228.484375 165.335938 228.269531 166.144531 227.632812 166.511719 L 223.796875 168.730469 L 227.632812 170.953125 C 228.261719 171.316406 228.480469 172.125 228.121094 172.757812 C 227.753906 173.386719 226.945312 173.605469 226.308594 173.246094 L 222.472656 171.027344 L 222.472656 175.464844 C 222.472656 176.199219 221.882812 176.789062 221.152344 176.789062 C 220.417969 176.789062 219.828125 176.199219 219.828125 175.464844 L 219.828125 171.027344 L 215.992188 173.246094 C 215.363281 173.613281 214.554688 173.394531 214.191406 172.757812 C 213.824219 172.125 214.042969 171.3125 214.671875 170.953125 Z M 199.855469 168.730469 L 196.019531 166.511719 C 195.386719 166.144531 195.171875 165.335938 195.535156 164.707031 C 195.902344 164.074219 196.710938 163.855469 197.339844 164.21875 L 201.175781 166.4375 L 201.175781 161.996094 C 201.175781 161.265625 201.765625 160.671875 202.5 160.671875 C 203.230469 160.671875 203.820312 161.265625 203.820312 161.996094 L 203.820312 166.4375 L 207.65625 164.21875 C 208.285156 163.851562 209.101562 164.066406 209.464844 164.707031 C 209.832031 165.335938 209.617188 166.144531 208.976562 166.511719 L 205.140625 168.730469 L 208.976562 170.953125 C 209.609375 171.316406 209.824219 172.125 209.464844 172.757812 C 209.101562 173.386719 208.292969 173.605469 207.65625 173.246094 L 203.820312 171.027344 L 203.820312 175.464844 C 203.820312 176.199219 203.230469 176.789062 202.5 176.789062 C 201.765625 176.789062 201.175781 176.199219 201.175781 175.464844 L 201.175781 171.027344 L 197.339844 173.246094 C 196.710938 173.613281 195.902344 173.394531 195.535156 172.757812 C 195.171875 172.125 195.386719 171.3125 196.019531 170.953125 Z M 181.199219 168.730469 L 177.363281 166.511719 C 176.734375 166.144531 176.515625 165.335938 176.875 164.707031 C 177.242188 164.074219 178.050781 163.855469 178.6875 164.21875 L 182.523438 166.4375 L 182.523438 161.996094 C 182.523438 161.265625 183.113281 160.671875 183.84375 160.671875 C 184.578125 160.671875 185.167969 161.265625 185.167969 161.996094 L 185.167969 166.4375 L 189.003906 164.21875 C 189.632812 163.851562 190.445312 164.066406 190.8125 164.707031 C 191.179688 165.335938 190.960938 166.144531 190.324219 166.511719 L 186.488281 168.730469 L 190.324219 170.953125 C 190.953125 171.316406 191.171875 172.125 190.8125 172.757812 C 190.445312 173.386719 189.640625 173.605469 189.003906 173.246094 L 185.167969 171.027344 L 185.167969 175.464844 C 185.167969 176.199219 184.578125 176.789062 183.84375 176.789062 C 183.113281 176.789062 182.523438 176.199219 182.523438 175.464844 L 182.523438 171.027344 L 178.6875 173.246094 C 178.054688 173.613281 177.242188 173.394531 176.875 172.757812 C 176.511719 172.125 176.726562 171.3125 177.363281 170.953125 Z M 162.554688 168.730469 L 158.71875 166.511719 C 158.085938 166.144531 157.871094 165.335938 158.230469 164.707031 C 158.597656 164.074219 159.402344 163.855469 160.039062 164.21875 L 163.875 166.4375 L 163.875 161.996094 C 163.875 161.265625 164.464844 160.671875 165.199219 160.671875 C 165.929688 160.671875 166.519531 161.265625 166.519531 161.996094 L 166.519531 166.4375 L 170.355469 164.21875 C 170.988281 163.851562 171.792969 164.066406 172.160156 164.707031 C 172.523438 165.335938 172.308594 166.144531 171.679688 166.511719 L 167.839844 168.730469 L 171.679688 170.953125 C 172.308594 171.316406 172.523438 172.125 172.160156 172.757812 C 171.792969 173.386719 170.988281 173.605469 170.355469 173.246094 L 166.519531 171.027344 L 166.519531 175.464844 C 166.519531 176.199219 165.929688 176.789062 165.199219 176.789062 C 164.464844 176.789062 163.875 176.199219 163.875 175.464844 L 163.875 171.027344 L 160.039062 173.246094 C 159.410156 173.613281 158.597656 173.394531 158.230469 172.757812 C 157.863281 172.125 158.082031 171.3125 158.71875 170.953125 Z M 143.902344 168.730469 L 140.0625 166.511719 C 139.433594 166.144531 139.21875 165.335938 139.578125 164.707031 C 139.941406 164.074219 140.75 163.855469 141.386719 164.21875 L 145.222656 166.4375 L 145.222656 161.996094 C 145.222656 161.265625 145.8125 160.671875 146.542969 160.671875 C 147.277344 160.671875 147.867188 161.265625 147.867188 161.996094 L 147.867188 166.4375 L 151.703125 164.21875 C 152.332031 163.851562 153.140625 164.066406 153.503906 164.707031 C 153.871094 165.335938 153.65625 166.144531 153.023438 166.511719 L 149.1875 168.730469 L 153.023438 170.953125 C 153.65625 171.316406 153.871094 172.125 153.503906 172.757812 C 153.140625 173.386719 152.332031 173.605469 151.703125 173.246094 L 147.867188 171.027344 L 147.867188 175.464844 C 147.867188 176.199219 147.277344 176.789062 146.542969 176.789062 C 145.8125 176.789062 145.222656 176.199219 145.222656 175.464844 L 145.222656 171.027344 L 141.386719 173.246094 C 140.753906 173.613281 139.941406 173.394531 139.578125 172.757812 C 139.210938 172.125 139.425781 171.3125 140.0625 170.953125 Z M 125.246094 168.730469 L 121.410156 166.511719 C 120.78125 166.144531 120.5625 165.335938 120.929688 164.707031 C 121.296875 164.074219 122.101562 163.855469 122.734375 164.21875 L 126.570312 166.4375 L 126.570312 161.996094 C 126.570312 161.265625 127.160156 160.671875 127.890625 160.671875 C 128.617188 160.671875 129.210938 161.265625 129.210938 161.996094 L 129.210938 166.4375 L 133.050781 164.21875 C 133.679688 163.851562 134.492188 164.066406 134.851562 164.707031 C 135.21875 165.335938 135 166.144531 134.371094 166.511719 L 130.535156 168.730469 L 134.371094 170.953125 C 135 171.316406 135.21875 172.125 134.851562 172.757812 C 134.484375 173.386719 133.679688 173.605469 133.050781 173.246094 L 129.210938 171.027344 L 129.210938 175.464844 C 129.210938 176.199219 128.617188 176.789062 127.890625 176.789062 C 127.160156 176.789062 126.570312 176.199219 126.570312 175.464844 L 126.570312 171.027344 L 122.734375 173.246094 C 122.101562 173.613281 121.296875 173.394531 120.929688 172.757812 C 120.5625 172.125 120.78125 171.3125 121.410156 170.953125 Z M 125.246094 168.730469 " fill-opacity="1" fill-rule="evenodd"/><path fill="#e15342" d="M 262.640625 172.28125 C 262.804688 172.867188 263.09375 173.414062 263.542969 173.910156 C 263.976562 174.394531 264.546875 174.710938 265.175781 174.890625 C 266.265625 175.195312 267.765625 175.132812 268.558594 174.242188 C 269.234375 173.492188 269.15625 172.253906 268.375 171.601562 C 267.933594 171.238281 267.351562 171.128906 266.800781 171.058594 C 266.125 170.980469 265.417969 171.003906 264.753906 171.167969 C 263.976562 171.359375 263.230469 171.753906 262.640625 172.28125 Z M 268.261719 162.4375 C 268.183594 162.464844 268.117188 162.5 268.042969 162.535156 C 267.722656 162.675781 267.425781 162.859375 267.132812 163.054688 C 266.261719 163.652344 265.445312 164.351562 264.78125 165.175781 C 263.988281 166.152344 263.269531 167.394531 262.851562 168.710938 C 263.238281 168.542969 263.644531 168.40625 264.050781 168.3125 C 265.054688 168.066406 266.125 168.011719 267.148438 168.140625 C 268.261719 168.277344 269.386719 168.617188 270.257812 169.34375 C 272.285156 171.039062 272.511719 174.25 270.742188 176.21875 C 269.222656 177.902344 266.457031 178.304688 264.382812 177.734375 C 263.222656 177.414062 262.179688 176.804688 261.367188 175.90625 C 259.632812 174.007812 259.246094 171.589844 259.691406 169.207031 C 260.097656 167.042969 261.21875 164.902344 262.5 163.320312 C 263.347656 162.277344 264.371094 161.378906 265.480469 160.625 C 265.90625 160.335938 266.363281 160.070312 266.835938 159.851562 C 266.984375 159.785156 267.132812 159.722656 267.285156 159.660156 C 267.417969 159.613281 267.730469 159.519531 267.847656 159.503906 C 268.070312 159.484375 268.253906 159.511719 268.386719 159.554688 C 268.972656 159.710938 269.277344 160.097656 269.417969 160.550781 C 269.492188 160.808594 269.601562 161.257812 269.222656 161.8125 C 268.992188 162.152344 268.640625 162.371094 268.261719 162.4375 Z M 252.132812 161.425781 C 252.03125 160.980469 252.132812 160.484375 252.464844 160.117188 C 252.046875 160.585938 252.046875 161.054688 252.132812 161.425781 Z M 252.902344 162.40625 C 252.414062 162.160156 252.222656 161.78125 252.140625 161.449219 C 252.210938 161.726562 252.363281 161.992188 252.59375 162.195312 C 252.691406 162.277344 252.792969 162.351562 252.902344 162.40625 Z M 253.667969 162.5625 C 252.976562 162.628906 252.3125 162.195312 252.109375 161.5 C 251.882812 160.722656 252.339844 159.898438 253.117188 159.675781 C 253.183594 159.65625 253.585938 159.609375 253.707031 159.621094 C 253.953125 159.648438 254.121094 159.722656 254.230469 159.769531 C 254.722656 160.023438 254.914062 160.410156 254.996094 160.75 C 255.082031 161.121094 255.082031 161.589844 254.667969 162.058594 C 254.40625 162.363281 254.039062 162.535156 253.667969 162.5625 Z M 252 165.722656 C 251.992188 165.554688 251.984375 165.039062 252.039062 164.816406 C 252.160156 164.3125 252.453125 164.007812 252.71875 163.835938 C 253.402344 163.394531 254.308594 163.59375 254.75 164.269531 C 254.988281 164.644531 255.042969 165.085938 254.925781 165.480469 C 254.933594 165.574219 254.941406 165.691406 254.941406 165.71875 C 254.941406 166.375 254.941406 167.035156 254.933594 167.699219 C 254.914062 170.226562 254.941406 172.757812 255.273438 175.261719 C 255.382812 176.070312 254.8125 176.808594 254.003906 176.910156 C 253.199219 177.019531 252.460938 176.449219 252.359375 175.640625 C 252.011719 173 251.972656 170.332031 252 167.664062 C 252 167.019531 252 166.367188 252 165.722656 Z M 236.910156 165.5 C 236.863281 165.085938 236.992188 164.652344 237.296875 164.320312 C 237.773438 163.816406 238.238281 163.824219 238.496094 163.84375 C 239.003906 163.878906 239.472656 164.109375 239.746094 164.710938 C 239.796875 164.828125 239.847656 164.976562 239.867188 165.167969 C 239.878906 165.261719 239.847656 165.636719 239.832031 165.777344 C 239.824219 166.015625 239.824219 166.261719 239.820312 166.5 C 239.804688 167.15625 239.792969 167.820312 239.804688 168.480469 C 239.820312 169.425781 239.757812 170.699219 240 171.820312 C 240.152344 172.5 240.375 173.164062 241.078125 173.367188 C 241.28125 173.429688 241.507812 173.429688 241.714844 173.402344 C 242.660156 173.292969 243.167969 172.65625 243.492188 171.894531 C 243.953125 170.808594 244.074219 169.476562 244.144531 168.390625 C 244.199219 167.5625 244.238281 166.734375 244.304688 165.914062 C 244.3125 165.878906 244.339844 165.445312 244.386719 165.203125 C 244.433594 164.957031 244.515625 164.773438 244.578125 164.660156 C 244.9375 164.019531 245.476562 163.882812 245.878906 163.882812 C 245.945312 163.882812 247.269531 163.984375 247.347656 165.289062 C 247.355469 165.425781 247.371094 166.089844 247.375 166.125 C 247.429688 167.019531 247.464844 167.917969 247.5 168.820312 C 247.527344 169.585938 247.566406 170.359375 247.613281 171.128906 C 247.703125 172.425781 247.667969 173.808594 248.019531 175.070312 C 248.238281 175.851562 247.777344 176.667969 246.996094 176.882812 C 246.21875 177.101562 245.402344 176.640625 245.1875 175.859375 C 245.105469 175.554688 245.039062 175.25 244.984375 174.929688 C 244.257812 175.667969 243.308594 176.179688 242.0625 176.320312 C 241.460938 176.390625 240.84375 176.363281 240.253906 176.183594 C 238.753906 175.746094 237.867188 174.683594 237.378906 173.328125 C 236.835938 171.8125 236.878906 169.871094 236.863281 168.507812 C 236.855469 167.816406 236.871094 167.121094 236.878906 166.4375 C 236.882812 166.191406 236.882812 165.949219 236.890625 165.703125 C 236.890625 165.664062 236.898438 165.582031 236.910156 165.5 Z M 236.910156 165.5 " fill-opacity="1" fill-rule="evenodd"/><path fill="#a0d0f4" d="M 220.054688 225.832031 C 222.234375 225.832031 224.332031 226.699219 225.875 228.246094 C 227.421875 229.796875 228.289062 231.894531 228.289062 234.078125 C 228.289062 236.441406 228.289062 239.019531 228.289062 241.382812 C 228.289062 243.570312 227.421875 245.667969 225.875 247.214844 C 224.332031 248.761719 222.234375 249.632812 220.054688 249.632812 L 149.25 249.632812 C 147.066406 249.632812 144.972656 248.761719 143.425781 247.214844 C 141.882812 245.667969 141.011719 243.570312 141.011719 241.382812 L 141.011719 234.078125 C 141.011719 231.894531 141.882812 229.796875 143.425781 228.246094 C 144.972656 226.699219 147.066406 225.832031 149.25 225.832031 C 165.902344 225.832031 203.398438 225.832031 220.054688 225.832031 Z M 220.054688 225.832031 " fill-opacity="1" fill-rule="evenodd"/><path fill="#3785df" d="M 194.582031 233.554688 C 194.582031 232.9375 195.089844 232.441406 195.714844 232.441406 C 196.335938 232.441406 196.84375 232.945312 196.84375 233.554688 L 196.84375 242.027344 C 196.84375 242.644531 196.335938 243.140625 195.714844 243.140625 C 195.089844 243.140625 194.582031 242.640625 194.582031 242.027344 Z M 189.136719 232.621094 C 189.75 232.753906 190.132812 233.347656 190 233.949219 C 189.863281 234.554688 189.261719 234.933594 188.648438 234.796875 C 188.648438 234.796875 187.523438 234.554688 186.296875 234.746094 C 185.253906 234.90625 184.09375 235.402344 183.757812 236.882812 C 183.511719 237.957031 183.59375 238.789062 183.945312 239.414062 C 184.78125 240.886719 186.886719 241.125 188.332031 240.792969 C 189.050781 240.628906 189.253906 240.101562 189.300781 239.625 C 189.316406 239.460938 189.316406 239.304688 189.308594 239.15625 L 186.453125 239.15625 C 185.832031 239.15625 185.320312 238.65625 185.320312 238.042969 C 185.320312 237.433594 185.832031 236.929688 186.453125 236.929688 L 190.257812 236.929688 C 190.757812 236.929688 191.191406 237.25 191.339844 237.722656 C 191.339844 237.722656 191.652344 238.734375 191.542969 239.847656 C 191.421875 241.140625 190.785156 242.53125 188.839844 242.980469 C 186.550781 243.5 183.289062 242.855469 181.96875 240.507812 C 181.398438 239.496094 181.148438 238.152344 181.546875 236.40625 C 182.144531 233.800781 184.109375 232.835938 185.953125 232.550781 C 187.605469 232.285156 189.136719 232.621094 189.136719 232.621094 Z M 173.535156 234.5 C 171.929688 234.5 170.6875 235.964844 170.6875 237.703125 C 170.6875 239.441406 171.933594 240.910156 173.535156 240.910156 C 175.140625 240.910156 176.382812 239.441406 176.382812 237.703125 C 176.382812 235.964844 175.132812 234.5 173.535156 234.5 Z M 173.535156 232.265625 C 176.320312 232.265625 178.644531 234.675781 178.644531 237.703125 C 178.644531 240.730469 176.328125 243.140625 173.535156 243.140625 C 170.75 243.140625 168.425781 240.730469 168.425781 237.703125 C 168.425781 234.675781 170.742188 232.265625 173.535156 232.265625 Z M 158.644531 233.394531 C 158.636719 232.777344 159.136719 232.273438 159.761719 232.265625 C 160.386719 232.257812 160.894531 232.753906 160.902344 233.371094 L 160.960938 240.894531 L 166.703125 240.910156 C 167.328125 240.910156 167.835938 241.410156 167.828125 242.027344 C 167.828125 242.644531 167.320312 243.140625 166.695312 243.140625 L 159.835938 243.121094 C 159.21875 243.121094 158.71875 242.625 158.710938 242.015625 Z M 202.835938 236.847656 L 202.835938 242.199219 C 202.835938 242.808594 202.328125 243.3125 201.703125 243.3125 C 201.082031 243.3125 200.574219 242.808594 200.574219 242.199219 L 200.574219 233.726562 C 200.574219 233.394531 200.722656 233.074219 200.988281 232.863281 C 201.191406 232.699219 201.441406 232.613281 201.703125 232.613281 C 202.042969 232.613281 202.363281 232.761719 202.578125 233.019531 L 207.609375 239.074219 L 207.609375 233.726562 C 207.609375 233.113281 208.117188 232.613281 208.742188 232.613281 C 209.363281 232.613281 209.871094 233.113281 209.871094 233.726562 C 209.871094 233.726562 209.871094 242.191406 209.871094 242.199219 C 209.871094 242.53125 209.722656 242.851562 209.460938 243.058594 C 209.257812 243.222656 209.003906 243.3125 208.742188 243.3125 C 208.402344 243.3125 208.082031 243.164062 207.867188 242.902344 Z M 202.835938 236.847656 " fill-opacity="1" fill-rule="evenodd"/><path fill="#e3effa" d="M 332.054688 189.082031 C 332.054688 190.859375 331.96875 192.632812 331.796875 194.398438 C 331.621094 196.167969 331.363281 197.921875 331.015625 199.664062 C 330.667969 201.40625 330.238281 203.125 329.722656 204.824219 C 329.210938 206.523438 328.613281 208.195312 327.933594 209.835938 C 327.257812 211.476562 326.5 213.082031 325.664062 214.648438 C 324.828125 216.214844 323.917969 217.734375 322.929688 219.210938 C 321.945312 220.6875 320.890625 222.113281 319.765625 223.484375 C 318.640625 224.859375 317.453125 226.171875 316.199219 227.429688 C 314.945312 228.683594 313.632812 229.875 312.261719 231.003906 C 310.890625 232.128906 309.46875 233.1875 307.992188 234.171875 C 306.519531 235.160156 305 236.070312 303.433594 236.910156 C 301.871094 237.746094 300.269531 238.503906 298.632812 239.183594 C 296.992188 239.863281 295.324219 240.460938 293.628906 240.976562 C 291.933594 241.492188 290.214844 241.921875 288.476562 242.269531 C 286.734375 242.617188 284.984375 242.875 283.21875 243.050781 C 281.453125 243.222656 279.683594 243.3125 277.910156 243.3125 C 276.140625 243.3125 274.371094 243.222656 272.605469 243.050781 C 270.839844 242.875 269.089844 242.617188 267.347656 242.269531 C 265.609375 241.921875 263.890625 241.492188 262.195312 240.976562 C 260.496094 240.460938 258.832031 239.863281 257.191406 239.183594 C 255.554688 238.503906 253.953125 237.746094 252.386719 236.910156 C 250.824219 236.070312 249.304688 235.160156 247.832031 234.171875 C 246.355469 233.1875 244.933594 232.128906 243.5625 231.003906 C 242.191406 229.875 240.878906 228.683594 239.625 227.429688 C 238.371094 226.171875 237.183594 224.859375 236.058594 223.484375 C 234.933594 222.113281 233.878906 220.6875 232.894531 219.210938 C 231.90625 217.734375 230.996094 216.214844 230.160156 214.648438 C 229.324219 213.082031 228.566406 211.476562 227.890625 209.835938 C 227.210938 208.195312 226.613281 206.523438 226.097656 204.824219 C 225.585938 203.125 225.15625 201.40625 224.808594 199.664062 C 224.460938 197.921875 224.203125 196.167969 224.027344 194.398438 C 223.855469 192.632812 223.769531 190.859375 223.769531 189.082031 C 223.769531 187.308594 223.855469 185.535156 224.027344 183.769531 C 224.203125 182 224.460938 180.246094 224.808594 178.503906 C 225.15625 176.761719 225.585938 175.042969 226.097656 173.34375 C 226.613281 171.644531 227.210938 169.972656 227.890625 168.332031 C 228.566406 166.691406 229.324219 165.085938 230.160156 163.519531 C 230.996094 161.953125 231.90625 160.433594 232.894531 158.957031 C 233.878906 157.480469 234.933594 156.054688 236.058594 154.683594 C 237.183594 153.308594 238.371094 151.996094 239.625 150.738281 C 240.878906 149.484375 242.191406 148.292969 243.5625 147.164062 C 244.933594 146.039062 246.355469 144.980469 247.832031 143.996094 C 249.304688 143.007812 250.824219 142.097656 252.386719 141.257812 C 253.953125 140.421875 255.554688 139.664062 257.191406 138.984375 C 258.832031 138.304688 260.496094 137.707031 262.195312 137.191406 C 263.890625 136.675781 265.609375 136.246094 267.347656 135.898438 C 269.089844 135.550781 270.839844 135.292969 272.605469 135.117188 C 274.371094 134.941406 276.140625 134.855469 277.910156 134.855469 C 279.683594 134.855469 281.453125 134.941406 283.21875 135.117188 C 284.984375 135.292969 286.734375 135.550781 288.476562 135.898438 C 290.214844 136.246094 291.933594 136.675781 293.628906 137.191406 C 295.324219 137.707031 296.992188 138.304688 298.632812 138.984375 C 300.269531 139.664062 301.871094 140.421875 303.433594 141.257812 C 305 142.097656 306.519531 143.007812 307.992188 143.996094 C 309.46875 144.980469 310.890625 146.039062 312.261719 147.164062 C 313.632812 148.292969 314.945312 149.484375 316.199219 150.738281 C 317.453125 151.996094 318.640625 153.308594 319.765625 154.683594 C 320.890625 156.054688 321.945312 157.480469 322.929688 158.957031 C 323.917969 160.433594 324.828125 161.953125 325.664062 163.519531 C 326.5 165.085938 327.257812 166.691406 327.933594 168.332031 C 328.613281 169.972656 329.210938 171.644531 329.722656 173.34375 C 330.238281 175.042969 330.667969 176.761719 331.015625 178.503906 C 331.363281 180.246094 331.621094 182 331.796875 183.769531 C 331.96875 185.535156 332.054688 187.308594 332.054688 189.082031 Z M 332.054688 189.082031 " fill-opacity="0.596" fill-rule="nonzero"/><path fill="#e15342" d="M 277.449219 137.824219 C 249.457031 137.824219 226.722656 160.585938 226.722656 188.628906 C 226.722656 216.671875 249.449219 239.433594 277.449219 239.433594 C 305.453125 239.433594 328.179688 216.671875 328.179688 188.628906 C 328.179688 160.585938 305.445312 137.824219 277.449219 137.824219 Z M 294.160156 244.132812 C 288.867188 245.726562 283.261719 246.589844 277.449219 246.589844 C 245.511719 246.589844 219.578125 220.625 219.578125 188.636719 C 219.578125 156.648438 245.511719 130.675781 277.449219 130.675781 C 309.390625 130.675781 335.316406 156.648438 335.316406 188.636719 C 335.316406 207.96875 325.847656 225.105469 311.292969 235.640625 C 317.144531 246.53125 329.878906 267.527344 338.121094 281.394531 C 348.207031 298.359375 357.09375 308.148438 356.625 311.539062 C 355.535156 319.417969 340.664062 328.652344 332.054688 325.984375 C 329.683594 325.25 324.742188 312.894531 316.285156 293.1875 C 308.9375 276.058594 296.484375 249.15625 294.160156 244.132812 Z M 294.160156 244.132812 " fill-opacity="1" fill-rule="evenodd"/></svg>